# xmcd
#
# Track frame offsets: 
#        150
#        21674
#        41736
#        54053
#        72763
#        89060
#        106499
#        120148
#        149937
#        170162
#        193143
#        209049
#
# Disc length: 2991 seconds
#
# Revision: 0
# Processed by: cddbd v1.5.2PL0 Copyright (c) Steve Scherf et al.
# Submitted via: ExactAudioCopyFreeDBPlugin 1.0
#
DISCID=be0bad0c
DTITLE=John F Klaver - Wheels in Moion
DYEAR=2012
DGENRE=Blues
TTITLE0=Wheels in Motion
TTITLE1=Dust
TTITLE2=Devil Woman
TTITLE3=Wrong over right
TTITLE4=Peace of mind
TTITLE5=Gimme summo
TTITLE6=Dynamite
TTITLE7=Moment for two
TTITLE8=Secret little medicine
TTITLE9=I told ya
TTITLE10=Jam
TTITLE11=Give it up
EXTD=
EXTT0=
EXTT1=
EXTT2=
EXTT3=
EXTT4=
EXTT5=
EXTT6=
EXTT7=
EXTT8=
EXTT9=
EXTT10=
EXTT11=
PLAYORDER=
